<svg width="119" height="118" viewBox="0 0 119 118" fill="none" xmlns="http://www.w3.org/2000/svg">
<path d="M95.7617 42.0407L91.4628 43.1932L86.9063 40.5625L91.4628 37.9318C91.4628 37.9318 95.7617 39.0842 95.7619 39.0843C96.7327 39.3475 97.7614 38.746 98.0196 37.7807C98.2833 36.7976 97.7 35.7857 96.716 35.5228L93.4597 34.6495L94.3321 31.3924C94.5958 30.4093 94.0116 29.3974 93.0285 29.1345C92.0364 28.8644 91.0335 29.4568 90.7706 30.4381L89.6188 34.7378L85.062 37.3687V32.1072L88.2093 28.9598C88.9295 28.2396 88.9295 27.0729 88.2093 26.3527C87.4891 25.6324 86.3224 25.6324 85.6022 26.3527L83.2182 28.7366L80.8343 26.3527C80.1141 25.6324 78.9474 25.6324 78.2272 26.3527C77.507 27.0729 77.507 28.2396 78.2272 28.9598L81.3745 32.1072V37.3687L76.8177 34.7378L75.6659 30.4381C75.4021 29.4532 74.3956 28.8644 73.408 29.1345C72.4249 29.3974 71.8406 30.4093 72.1044 31.3924L72.9768 34.6495L69.7205 35.5228C68.7366 35.7856 68.1532 36.7974 68.4169 37.7805C68.6678 38.7158 69.7341 39.3394 70.6748 39.0842L74.9737 37.9318L79.5302 40.5625L74.9737 43.1932L70.6748 42.0407C69.6953 41.7761 68.6798 42.3612 68.4169 43.3443C68.1531 44.3274 68.7365 45.3393 69.7205 45.6022L72.9768 46.4755L72.1045 49.7325C71.4934 52.014 75.0486 52.9898 75.6659 50.6869L76.8176 46.3872L81.3745 43.7563V49.0178L78.2271 52.1652C77.5069 52.8854 77.5069 54.0521 78.2271 54.7723C78.9473 55.4925 80.1141 55.4925 80.8343 54.7723L83.2182 52.3884C83.2182 52.3884 85.6021 54.7723 85.6025 54.7727C86.3184 55.4881 87.4917 55.4899 88.2093 54.7723C88.9295 54.0521 88.9295 52.8854 88.2093 52.1652L85.062 49.0178V43.7563L89.6188 46.3872L90.7706 50.6869C91.3765 52.9489 94.9588 52.0686 94.3321 49.7326L93.4597 46.4755L96.716 45.6022C97.7 45.3393 98.2833 44.3274 98.0196 43.3443C97.7558 42.3594 96.7421 41.7706 95.7617 42.0407Z" fill="#1B5BE6"/>
<path d="M83.2188 18.4375C71.0131 18.4375 61.0938 28.3569 61.0938 40.5625C61.0938 44.6003 62.2 48.3615 64.0806 51.625H18.6875C15.6453 51.625 13.1562 54.114 13.1562 57.1562V94.0312C13.1562 97.0734 15.6453 99.5625 18.6875 99.5625H81.375C84.4172 99.5625 86.9062 97.0734 86.9062 94.0312V62.3556C97.3603 60.5856 105.344 51.4959 105.344 40.5625C105.344 28.3569 95.4244 18.4375 83.2188 18.4375ZM72.1562 95.875H27.9062V77.4375H72.1562V95.875ZM83.2188 94.0312C83.2188 95.0453 82.389 95.875 81.375 95.875H75.8438V75.5938C75.8438 74.5797 75.014 73.75 74 73.75H26.0625C25.0485 73.75 24.2188 74.5797 24.2188 75.5938V95.875H18.6875C17.6735 95.875 16.8438 95.0453 16.8438 94.0312V70.0625H83.2188V94.0312ZM83.2188 66.375H16.8438V57.1562C16.8438 56.1422 17.6735 55.3125 18.6875 55.3125H66.7725C70.8288 59.8297 76.6919 62.6875 83.2188 62.6875V66.375ZM83.2188 59C73.0597 59 64.7812 50.7216 64.7812 40.5625C64.7812 30.4034 73.0597 22.125 83.2188 22.125C93.3778 22.125 101.656 30.4034 101.656 40.5625C101.656 50.7216 93.3778 59 83.2188 59Z" fill="#1B5BE6"/>
<path d="M66.625 81.125H33.4375C32.4193 81.125 31.5938 81.9497 31.5938 82.9688C31.5938 83.9878 32.4193 84.8125 33.4375 84.8125H66.625C67.6432 84.8125 68.4688 83.9878 68.4688 82.9688C68.4688 81.9497 67.6432 81.125 66.625 81.125Z" fill="#1B5BE6"/>
<path d="M66.625 88.5H33.4375C32.4193 88.5 31.5938 89.3247 31.5938 90.3438C31.5938 91.3628 32.4193 92.1875 33.4375 92.1875H66.625C67.6432 92.1875 68.4688 91.3628 68.4688 90.3438C68.4688 89.3247 67.6432 88.5 66.625 88.5Z" fill="#1B5BE6"/>
</svg>
