<svg width="119" height="118" viewBox="0 0 119 118" fill="none" xmlns="http://www.w3.org/2000/svg">
<path d="M80.6041 59.0783C79.2231 59.8778 77.5702 59.8778 76.1856 59.0783C74.8028 58.2789 73.9763 56.8493 73.9763 55.2522C73.9763 54.2331 73.1517 53.4084 72.1326 53.4084H65.4958C64.4767 53.4084 63.6521 54.2331 63.6521 55.2522C63.6521 56.8493 62.8256 58.2789 61.4428 59.0783C60.0582 59.8778 58.4053 59.8778 57.0243 59.0783C56.1438 58.5706 55.0149 58.8695 54.5054 59.7535L51.187 65.5009C50.6774 66.3831 50.9799 67.5103 51.8622 68.0198C53.245 68.8175 54.0714 70.2489 54.0714 71.846C54.0714 73.4431 53.245 74.8745 51.8622 75.6721C50.9799 76.1817 50.6774 77.3088 51.187 78.1911L54.5054 83.9384C55.0149 84.8207 56.1438 85.1213 57.0243 84.6136C58.4053 83.8159 60.0582 83.8123 61.4428 84.6136C62.8256 85.413 63.6521 86.8426 63.6521 88.4397C63.6521 89.4588 64.4767 90.2835 65.4958 90.2835H72.1326C73.1517 90.2835 73.9763 89.4588 73.9763 88.4397C73.9763 86.8427 74.8028 85.413 76.1856 84.6136C77.5702 83.8123 79.2231 83.8159 80.6041 84.6136C81.481 85.1213 82.6117 84.8206 83.1231 83.9384L86.4414 78.1911C86.951 77.3088 86.6485 76.1817 85.7662 75.6721C84.3834 74.8727 83.557 73.4431 83.557 71.846C83.557 70.2489 84.3834 68.8193 85.7662 68.0198C86.6485 67.5103 86.951 66.3831 86.4414 65.5009L83.1231 59.7535C82.6117 58.8695 81.481 58.5706 80.6041 59.0783ZM82.428 77.7661L80.7481 80.6776C78.6271 80.024 76.3314 80.2707 74.34 81.4212C72.3504 82.57 70.9892 84.4335 70.4959 86.5959H67.1325C66.6391 84.4335 65.2779 82.57 63.2883 81.4212C61.2951 80.2707 58.9976 80.0222 56.8802 80.6776L55.1985 77.7643C56.8262 76.2555 57.7589 74.1452 57.7589 71.8459C57.7589 69.5467 56.8262 67.4364 55.1985 65.9276L56.8802 63.0143C58.9994 63.6697 61.2969 63.4212 63.2883 62.2707C65.2779 61.1219 66.6391 59.2584 67.1325 57.0959H70.4959C70.9892 59.2584 72.3504 61.1219 74.34 62.2707C76.3314 63.4194 78.6271 63.6697 80.7481 63.0143L82.428 65.9258C80.8021 67.4364 79.8695 69.5467 79.8695 71.8459C79.8695 74.1452 80.8021 76.2555 82.428 77.7661Z" fill="#1B5BE6"/>
<path d="M68.8145 64.4709C64.747 64.4709 61.4395 67.7785 61.4395 71.8459C61.4395 75.9134 64.747 79.2209 68.8145 79.2209C72.8819 79.2209 76.1895 75.9134 76.1895 71.8459C76.1895 67.7785 72.8819 64.4709 68.8145 64.4709ZM68.8145 75.5334C66.7816 75.5334 65.127 73.8788 65.127 71.8459C65.127 69.8131 66.7816 68.1584 68.8145 68.1584C70.8473 68.1584 72.502 69.8131 72.502 71.8459C72.502 73.8788 70.8473 75.5334 68.8145 75.5334Z" fill="#1B5BE6"/>
<path d="M100.312 20.2209H96.625C95.611 20.2209 94.7812 21.0507 94.7812 22.0647V25.7522H91.0938V23.9084C91.0938 20.8662 88.6047 18.3772 85.5625 18.3772H77.6712L76.2516 14.0997C75.9934 13.3621 75.2928 12.8459 74.5 12.8459H45C44.2072 12.8459 43.5066 13.3621 43.2484 14.0997L41.8288 18.3772H33.9375C30.8953 18.3772 28.4062 20.8662 28.4062 23.9084V25.7522H24.7188V22.0647C24.7188 21.0507 23.889 20.2209 22.875 20.2209H19.1875C16.1453 20.2209 13.6562 22.71 13.6562 25.7522V51.5647C13.6562 54.6068 16.1453 57.0959 19.1875 57.0959H22.875C23.889 57.0959 24.7188 56.2662 24.7188 55.2522V51.5647H28.4062V53.4084C28.4062 56.4506 30.8953 58.9397 33.9375 58.9397H41.8288L43.2484 63.2172C43.396 63.6782 43.7463 64.0285 44.1518 64.2313C43.396 66.6466 43.0087 69.1909 43.0087 71.8459C43.0087 86.0796 54.5875 97.6584 68.8212 97.6584C73.9284 97.6584 78.7038 96.1466 82.7232 93.5653L92.7347 103.577C94.8161 105.658 98.4094 105.701 100.534 103.577C102.691 101.42 102.691 97.9166 100.534 95.7593L90.5222 85.7478C93.1035 81.7284 94.6337 76.9715 94.6337 71.8459C94.6337 66.2593 92.8269 61.0968 89.8031 56.8747C90.5959 55.8975 91.0937 54.6991 91.0937 53.4084V51.5647H94.7812V55.2522C94.7812 56.2662 95.6109 57.0959 96.625 57.0959H100.312C103.355 57.0959 105.844 54.6068 105.844 51.5647V25.7522C105.844 22.71 103.355 20.2209 100.312 20.2209ZM21.0312 53.4084H19.1875C18.1735 53.4084 17.3438 52.5787 17.3438 51.5647V25.7522C17.3438 24.7382 18.1735 23.9084 19.1875 23.9084H21.0312V53.4084ZM28.4062 47.8772H24.7188V29.4397H28.4062V47.8772ZM83.7188 22.0647H85.5625C86.5765 22.0647 87.4062 22.8944 87.4062 23.9084V53.4084C87.4062 53.5743 87.3878 53.7403 87.3325 53.9062C86.2262 52.7631 85.0094 51.7306 83.7188 50.8087V22.0647ZM35.7812 55.2522H33.9375C32.9235 55.2522 32.0938 54.4225 32.0938 53.4084V23.9084C32.0938 22.8944 32.9235 22.0647 33.9375 22.0647H35.7812V55.2522ZM44.9078 56.5059C44.6497 55.7684 43.949 55.2522 43.1562 55.2522H39.4688V22.0647H43.1562C43.949 22.0647 44.6497 21.5484 44.9078 20.811L46.3274 16.5334H73.1726L74.5922 20.811C74.8503 21.5484 75.551 22.0647 76.3438 22.0647H80.0312V48.6331C78.2244 47.7481 76.3068 47.0659 74.2972 46.6234C75.6247 44.2081 76.3438 41.4609 76.3438 38.6584C76.3438 29.5134 68.895 22.0647 59.75 22.0647C50.605 22.0647 43.1562 29.5134 43.1562 38.6584C43.1562 44.5584 46.3459 49.9606 51.324 52.9106C49.1854 54.8834 47.3784 57.2066 45.9956 59.8062L44.9078 56.5059ZM72.6562 38.6584C72.6562 41.3319 71.7713 43.9316 70.2409 46.1072C69.7615 46.0702 69.3006 46.0334 68.8212 46.0334C63.5112 46.0334 58.5884 47.6375 54.4769 50.3847C49.886 48.3197 46.8438 43.7472 46.8438 38.6584C46.8438 31.5416 52.6331 25.7522 59.75 25.7522C66.8669 25.7522 72.6562 31.5416 72.6562 38.6584ZM97.9341 98.3775C98.6531 99.078 98.6531 100.258 97.9341 100.959C97.215 101.678 96.0534 101.678 95.3344 100.959L85.6916 91.3159C86.6319 90.5231 87.4984 89.6565 88.2912 88.7346L97.9341 98.3775ZM90.9462 71.8459C90.9462 84.0516 81.0085 93.9709 68.8212 93.9709C56.6156 93.9709 46.6962 84.0516 46.6962 71.8459C46.6962 68.8406 47.3047 65.9644 48.3925 63.3463V63.3278C51.7481 55.3443 59.6394 49.7209 68.8212 49.7209C81.0085 49.7209 90.9462 59.6403 90.9462 71.8459ZM94.7812 47.8772H91.0938V29.4397H94.7812V47.8772ZM102.156 51.5647C102.156 52.5787 101.327 53.4084 100.312 53.4084H98.4688V23.9084H100.312C101.327 23.9084 102.156 24.7382 102.156 25.7522V51.5647Z" fill="#1B5BE6"/>
<path d="M63.9777 33.6674L57.9062 39.7388L55.5223 37.3549C54.8021 36.6346 53.6354 36.6346 52.9152 37.3549C52.1949 38.0751 52.1949 39.2418 52.9152 39.962L56.6027 43.6495C56.9628 44.0096 57.4345 44.1897 57.9062 44.1897C58.378 44.1897 58.8497 44.0096 59.2098 43.6495L66.5848 36.2745C67.305 35.5543 67.305 34.3876 66.5848 33.6674C65.8646 32.9471 64.6979 32.9471 63.9777 33.6674Z" fill="#1B5BE6"/>
</svg>
