<svg width="18" height="17" viewBox="0 0 18 17" fill="none" xmlns="http://www.w3.org/2000/svg">
<path d="M17.1814 2.95753C16.9644 2.39707 16.6327 1.88811 16.2077 1.46321C15.7826 1.03831 15.2735 0.706846 14.713 0.490029C14.057 0.243801 13.3641 0.110662 12.6636 0.0962792C11.7608 0.0569042 11.4748 0.0456543 9.18547 0.0456543C6.89609 0.0456543 6.60266 0.0456542 5.70734 0.0962792C5.0074 0.109926 4.31493 0.243093 3.65984 0.490029C3.09916 0.706593 2.58994 1.03797 2.16484 1.4629C1.73975 1.88783 1.40818 2.39693 1.19141 2.95753C0.945129 3.61342 0.812295 4.30644 0.798594 5.0069C0.758281 5.90878 0.746094 6.19472 0.746094 8.48503C0.746094 10.7744 0.746094 11.066 0.798594 11.9632C0.812656 12.6644 0.944844 13.3563 1.19141 14.0135C1.40879 14.5739 1.74068 15.0828 2.16588 15.5076C2.59107 15.9325 3.10022 16.264 3.66078 16.481C4.31463 16.7371 5.00738 16.8798 5.70922 16.9028C6.61203 16.9422 6.89797 16.9544 9.18734 16.9544C11.4767 16.9544 11.7702 16.9544 12.6655 16.9028C13.3659 16.8886 14.0588 16.7558 14.7148 16.51C15.2752 16.2927 15.7842 15.961 16.2092 15.5359C16.6342 15.1109 16.966 14.602 17.1833 14.0416C17.4298 13.3853 17.562 12.6935 17.5761 11.9922C17.6164 11.0903 17.6286 10.8044 17.6286 8.51409C17.6286 6.22378 17.6286 5.93315 17.5761 5.03597C17.5652 4.3256 17.4317 3.62245 17.1814 2.95753ZM16.0395 11.8938C16.0335 12.4341 15.9349 12.9693 15.748 13.4763C15.6072 13.8408 15.3916 14.1719 15.1152 14.4482C14.8388 14.7244 14.5076 14.9398 14.143 15.0803C13.6416 15.2664 13.1121 15.365 12.5773 15.3719C11.6867 15.4132 11.4355 15.4235 9.15172 15.4235C6.86609 15.4235 6.63266 15.4235 5.72516 15.3719C5.19071 15.3654 4.6614 15.2667 4.16047 15.0803C3.79455 14.9406 3.46203 14.7257 3.18443 14.4494C2.90682 14.1731 2.69031 13.8415 2.54891 13.4763C2.36464 12.9748 2.26607 12.4458 2.25734 11.9116C2.21703 11.021 2.20766 10.7697 2.20766 8.48597C2.20766 6.20128 2.20766 5.96784 2.25734 5.0594C2.2634 4.51943 2.36202 3.98449 2.54891 3.47784C2.83484 2.73815 3.42078 2.15597 4.16047 1.87284C4.66165 1.68735 5.1908 1.58875 5.72516 1.58128C6.61672 1.54097 6.86703 1.52972 9.15172 1.52972C11.4364 1.52972 11.6708 1.52972 12.5773 1.58128C13.1121 1.58771 13.6417 1.68635 14.143 1.87284C14.5076 2.01372 14.8387 2.22928 15.1151 2.50568C15.3915 2.78208 15.6071 3.11322 15.748 3.47784C15.9322 3.97936 16.0308 4.5083 16.0395 5.04253C16.0798 5.93409 16.0902 6.1844 16.0902 8.46909C16.0902 10.7528 16.0902 10.9985 16.0498 11.8947H16.0395V11.8938Z" fill="white"/>
<path d="M9.18593 4.15946C8.03584 4.15946 6.93284 4.61687 6.1196 5.43106C5.30636 6.24525 4.84949 7.34953 4.84949 8.50097C4.84949 9.6524 5.30636 10.7567 6.1196 11.5709C6.93284 12.3851 8.03584 12.8425 9.18593 12.8425C10.336 12.8425 11.439 12.3851 12.2523 11.5709C13.0655 10.7567 13.5224 9.6524 13.5224 8.50097C13.5224 7.34953 13.0655 6.24525 12.2523 5.43106C11.439 4.61687 10.336 4.15946 9.18593 4.15946ZM9.18593 11.3205C8.43877 11.3205 7.7222 11.0233 7.19388 10.4944C6.66555 9.96546 6.36874 9.24806 6.36874 8.50003C6.36874 7.75199 6.66555 7.03459 7.19388 6.50565C7.7222 5.97671 8.43877 5.67955 9.18593 5.67955C9.9331 5.67955 10.6497 5.97671 11.178 6.50565C11.7063 7.03459 12.0031 7.75199 12.0031 8.50003C12.0031 9.24806 11.7063 9.96546 11.178 10.4944C10.6497 11.0233 9.9331 11.3205 9.18593 11.3205Z" fill="white"/>
<path d="M13.6937 5.01198C14.252 5.01198 14.7047 4.55883 14.7047 3.99984C14.7047 3.44085 14.252 2.9877 13.6937 2.9877C13.1354 2.9877 12.6827 3.44085 12.6827 3.99984C12.6827 4.55883 13.1354 5.01198 13.6937 5.01198Z" fill="white"/>
</svg>
