<svg width="119" height="118" viewBox="0 0 119 118" fill="none" xmlns="http://www.w3.org/2000/svg">
<path d="M81.375 68.2188C80.3813 68.2188 79.4114 68.3292 78.4709 68.5458C78.8451 67.6383 78.8764 67.5472 78.8902 67.5058C79.2089 66.5542 78.703 65.5333 77.7577 65.1966C76.8169 64.8563 75.7663 65.3506 75.4098 66.2904C75.2558 66.6947 73.4598 70.9889 73.4589 70.9898C73.1168 71.8091 73.4076 72.7571 74.1503 73.2432C74.1503 73.2432 78.1133 75.8387 78.1133 75.8387C78.9583 76.393 80.1144 76.1481 80.6655 75.3066C81.2237 74.455 80.9851 73.3116 80.1335 72.7544L79.2275 72.1608C79.9208 71.9949 80.6373 71.9063 81.375 71.9063C86.4579 71.9063 90.5937 76.0421 90.5937 81.1251C90.5937 82.5301 90.2905 83.864 89.6929 85.0918C88.6644 87.2052 91.9691 88.8366 93.0073 86.7076C93.8527 84.9728 94.2812 83.0949 94.2812 81.1251C94.2812 74.0084 88.4916 68.2188 81.375 68.2188Z" fill="#1B5BE6"/>
<path d="M88.6978 88.3938L83.9173 86.208C82.9928 85.7858 81.8981 86.1927 81.4731 87.1181C81.05 88.0445 81.4578 89.1383 82.3833 89.5624L83.5308 90.0869C82.8348 90.2541 82.1156 90.3438 81.375 90.3438C76.2921 90.3438 72.1563 86.208 72.1563 81.125C72.1563 79.7197 72.4596 78.3855 73.0574 77.1576C73.5031 76.242 73.1231 75.1383 72.2076 74.6926C71.2884 74.2443 70.1874 74.6269 69.7426 75.5425C68.8973 77.2773 68.4688 79.1553 68.4688 81.125C68.4688 88.2417 74.2584 94.0313 81.375 94.0313C82.7092 94.0313 83.9964 93.8185 85.2303 93.4289C85.2303 93.4289 84.9761 94.4895 84.976 94.4896C84.4394 96.7346 88.02 97.6158 88.5627 95.3484L89.7241 90.5004C89.9293 89.6434 89.499 88.7611 88.6978 88.3938Z" fill="#1B5BE6"/>
<path d="M81.375 57.1562C80.7527 57.1562 80.1418 57.2028 79.5312 57.2496V29.5C79.5312 26.4499 77.0501 23.9687 74 23.9687H70.3125V18.4375C70.3125 15.3874 67.8314 12.9062 64.7812 12.9062H53.5333C50.4832 12.9062 48.002 15.3874 48.002 18.4375V23.9687H38.7842C38.1884 23.9687 37.6784 24.3111 37.2564 24.7331L33.0288 20.5054C32.3086 19.7852 31.1418 19.7852 30.4216 20.5054L29.1178 21.8092L25.2064 17.8964C23.0493 15.7412 19.541 15.7403 17.3839 17.8973L14.7767 20.5045C13.7315 21.5497 13.1562 22.9388 13.1562 24.4162C13.1562 25.8935 13.7315 27.2826 14.7767 28.3269L18.6876 32.2385L17.3839 33.5422C17.0382 33.8879 16.8438 34.3569 16.8438 34.8458C16.8438 35.3346 17.0382 35.8036 17.3839 36.1493L21.612 40.3775L20.8869 41.1026C20.5412 41.4483 20.3467 41.9174 20.3467 42.4062V99.5624C20.3467 102.613 22.8278 105.094 25.8779 105.094H81.375C94.5919 105.094 105.344 94.3418 105.344 81.1249C105.344 67.9081 94.5919 57.1562 81.375 57.1562ZM16.8438 24.4162C16.8438 23.9237 17.0355 23.461 17.3839 23.1126L19.9911 20.5054C20.7086 19.7852 21.8798 19.7861 22.5992 20.5045L26.5099 24.4162L21.2947 29.6314L17.3839 25.7189C17.0355 25.3714 16.8438 24.9086 16.8438 24.4162ZM31.7252 24.4162L34.3324 27.0234L23.9028 37.4539L21.2947 34.8458L31.7252 24.4162ZM51.6895 18.4375C51.6895 17.4211 52.5169 16.5937 53.5333 16.5937H64.7812C65.7977 16.5937 66.625 17.4211 66.625 18.4375V23.9687H51.6895V18.4375ZM25.8779 101.406C24.8615 101.406 24.0342 100.579 24.0342 99.5625V43.1697L39.5476 27.6562H74C75.0164 27.6562 75.8438 28.4836 75.8438 29.5V57.8261C74.5752 58.1274 73.3383 58.5108 72.1562 59.0053V47.9375C72.1562 46.9193 71.3307 46.0937 70.3125 46.0937H29.75C28.7318 46.0937 27.9062 46.9193 27.9062 47.9375V88.5C27.9062 89.5182 28.7318 90.3437 29.75 90.3437H59.2553C61.175 94.9327 64.4918 98.7839 68.6595 101.406H25.8779ZM57.4997 79.2812H38.9688V57.1562H61.0938V68.4095C59.0806 71.6087 57.8044 75.3068 57.4997 79.2812ZM62.9375 53.4687H37.125C36.1068 53.4687 35.2812 54.2943 35.2812 55.3125V81.125C35.2812 82.1432 36.1068 82.9687 37.125 82.9687H57.4997C57.5962 84.2285 57.7916 85.458 58.0762 86.6562H31.5938V49.7812H68.4688V60.9598C67.1449 61.81 65.9104 62.7827 64.7812 63.869V55.3125C64.7812 54.2943 63.9557 53.4687 62.9375 53.4687ZM81.375 101.406C70.1919 101.406 61.0938 92.3081 61.0938 81.125C61.0938 69.9418 70.1919 60.8437 81.375 60.8437C92.5581 60.8437 101.656 69.9418 101.656 81.125C101.656 92.3081 92.5581 101.406 81.375 101.406Z" fill="#1B5BE6"/>
<path d="M51.5482 61.6396C50.8604 60.6421 49.2021 60.6421 48.5143 61.6396C47.307 63.387 44.5 67.7056 44.5 70.0625C44.5 73.1126 46.9811 75.5938 50.0312 75.5938C53.0814 75.5938 55.5625 73.1126 55.5625 70.0625C55.5625 67.7056 52.7555 63.387 51.5482 61.6396ZM50.0313 71.9063C49.0149 71.9063 48.1875 71.0789 48.1875 70.0643C48.2028 69.5008 48.969 67.8947 50.0313 66.1049C51.0927 67.8938 51.8597 69.4999 51.875 70.0643C51.8741 71.0798 51.0477 71.9063 50.0313 71.9063Z" fill="#1B5BE6"/>
</svg>
