<svg width="119" height="118" viewBox="0 0 119 118" fill="none" xmlns="http://www.w3.org/2000/svg">
<path d="M59.5446 81.865C57.9439 80.9413 56.9878 79.2866 56.9878 77.4375C56.9878 75.5883 57.9439 73.9336 59.5446 73.01C60.4268 72.5004 60.7293 71.3733 60.2198 70.491L56.5322 64.1027C56.2874 63.6796 55.8841 63.3699 55.4123 63.2439C54.9424 63.1196 54.4364 63.1844 54.0133 63.4275C52.4126 64.3512 50.5005 64.3512 48.8998 63.4293C47.2991 62.5056 46.343 60.8492 46.343 59C46.343 57.9818 45.5184 57.1562 44.4993 57.1562H37.1243C36.1052 57.1562 35.2805 57.9818 35.2805 59C35.2805 60.8492 34.3244 62.5057 32.7237 63.4293C31.1195 64.3512 29.2109 64.3512 27.6102 63.4275C27.1853 63.1844 26.6811 63.1196 26.2112 63.2439C25.7395 63.3699 25.3361 63.6796 25.0913 64.1027L21.4038 70.491C20.8942 71.3733 21.1967 72.5004 22.079 73.01C23.6796 73.9336 24.6357 75.5883 24.6357 77.4375C24.6357 79.2866 23.6797 80.9413 22.079 81.865C21.1967 82.3746 20.8942 83.5017 21.4038 84.384L25.0913 90.7723C25.3361 91.1954 25.7395 91.5051 26.2112 91.6311C26.6811 91.7536 27.1853 91.6887 27.6102 91.4475C29.2109 90.522 31.1231 90.522 32.7237 91.4456C34.3244 92.3693 35.2805 94.0258 35.2805 95.875C35.2805 96.8941 36.1052 97.7187 37.1243 97.7187H44.4993C45.5184 97.7187 46.343 96.8941 46.343 95.875C46.343 94.0258 47.2991 92.3693 48.8998 91.4456C50.5041 90.522 52.4126 90.522 54.0133 91.4475C54.4364 91.6887 54.9424 91.7536 55.4123 91.6311C55.8841 91.5051 56.2874 91.1954 56.5322 90.7723L60.2198 84.384C60.7293 83.5017 60.4268 82.3746 59.5446 81.865ZM56.1991 83.9734L54.1663 87.4953C51.8238 86.7282 49.2671 86.9767 47.056 88.2515C44.8467 89.5281 43.3505 91.6131 42.8445 94.0313H38.7789C38.273 91.6131 36.7767 89.5281 34.5675 88.2515C32.3564 86.9767 29.8015 86.7283 27.4571 87.4953L25.4243 83.9734C27.2645 82.3277 28.3232 79.9888 28.3232 77.4375C28.3232 74.8861 27.2645 72.5472 25.4243 70.9015L27.4571 67.3797C29.8032 68.1503 32.3564 67.8982 34.5675 66.6234C36.7767 65.3469 38.273 63.2618 38.7789 60.8437H42.8445C43.3505 63.2618 44.8467 65.3469 47.056 66.6234C49.2671 67.8982 51.8238 68.1485 54.1663 67.3797L56.1991 70.9015C54.359 72.5472 53.3003 74.8861 53.3003 77.4375C53.3003 79.9888 54.359 82.3277 56.1991 83.9734Z" fill="#1B5BE6"/>
<path d="M40.8125 68.2188C35.7296 68.2188 31.5938 72.3546 31.5938 77.4375C31.5938 82.5204 35.7296 86.6562 40.8125 86.6562C45.8954 86.6562 50.0312 82.5204 50.0312 77.4375C50.0312 72.3546 45.8954 68.2188 40.8125 68.2188ZM40.8125 82.9688C37.7624 82.9688 35.2812 80.4876 35.2812 77.4375C35.2812 74.3874 37.7624 71.9062 40.8125 71.9062C43.8626 71.9062 46.3438 74.3874 46.3438 77.4375C46.3438 80.4876 43.8626 82.9688 40.8125 82.9688Z" fill="#1B5BE6"/>
<path d="M85.0625 46.0938C92.1782 46.0938 97.9688 40.3041 97.9688 33.1875C97.9688 26.0709 92.1782 20.2812 85.0625 20.2812C77.9468 20.2812 72.1562 26.0709 72.1562 33.1875C72.1562 40.3041 77.9468 46.0938 85.0625 46.0938ZM85.0625 23.9688C90.1454 23.9688 94.2812 28.1046 94.2812 33.1875C94.2812 38.2704 90.1454 42.4062 85.0625 42.4062C79.9796 42.4062 75.8438 38.2704 75.8438 33.1875C75.8438 28.1046 79.9796 23.9688 85.0625 23.9688Z" fill="#1B5BE6"/>
<path d="M99.8089 47.1048C99.8286 47.0797 99.8321 47.0487 99.8503 47.0229C103.246 43.3953 105.344 38.5371 105.344 33.1875C105.344 22.0044 96.2456 12.9062 85.0625 12.9062C79.7136 12.9062 74.8558 15.0031 71.2283 18.3986C71.2019 18.4172 71.17 18.4208 71.1443 18.4411C71.1443 18.4411 25.7801 54.2552 25.777 54.2573C17.9927 59.3237 13.1562 68.1419 13.1562 77.4375C13.1562 92.688 25.562 105.094 40.8127 105.094C49.9015 105.094 58.9075 100.186 63.9065 92.6048C63.9351 92.5613 63.9637 92.5177 63.9923 92.4741L99.8089 47.1048ZM101.656 33.1875C101.656 42.3369 94.2128 49.7812 85.0625 49.7812C75.9122 49.7812 68.4688 42.3369 68.4688 33.1875C68.4688 24.0381 75.9122 16.5938 85.0625 16.5938C94.2128 16.5938 101.656 24.0381 101.656 33.1875ZM65.6042 27.5137C65.0776 29.3165 64.7812 31.2168 64.7812 33.1875C64.7812 44.3706 73.8794 53.4688 85.0625 53.4688C87.0327 53.4688 88.9325 53.1726 90.735 52.6461L68.1795 81.2164C68.3499 79.9775 68.4688 78.7225 68.4688 77.4375C68.4688 62.187 56.063 49.7812 40.8125 49.7812C39.5269 49.7812 38.2715 49.9001 37.0322 50.0707L65.6042 27.5137ZM16.8438 77.4375C16.8438 70.6799 19.6663 64.5781 24.1808 60.2166L27.9209 57.2638C31.6481 54.8734 36.0655 53.4688 40.8125 53.4688C54.0284 53.4688 64.7812 64.2216 64.7812 77.4375C64.7812 82.1824 63.3776 86.5978 60.9892 90.3241L58.0265 94.0767C53.6656 98.587 47.5665 101.406 40.8125 101.406C27.5966 101.406 16.8438 90.6534 16.8438 77.4375Z" fill="#1B5BE6"/>
</svg>
