<svg width="119" height="118" viewBox="0 0 119 118" fill="none" xmlns="http://www.w3.org/2000/svg">
<path d="M59.25 23.9688C48.0669 23.9688 38.9688 33.0669 38.9688 44.25C38.9688 55.4331 48.0669 64.5312 59.25 64.5312C70.4331 64.5312 79.5312 55.4331 79.5312 44.25C79.5312 33.0669 70.4331 23.9688 59.25 23.9688ZM75.8438 44.25C75.8438 45.2845 75.7362 46.2931 75.5541 47.2758L70.3125 44.25L75.5541 41.2242C75.7362 42.2069 75.8438 43.2155 75.8438 44.25ZM42.6562 44.25C42.6562 43.2155 42.7638 42.2069 42.9459 41.2242L48.1875 44.25L42.9459 47.2758C42.7638 46.2931 42.6562 45.2845 42.6562 44.25ZM48.4839 31.6474C50.0139 30.3384 51.7847 29.3113 53.7188 28.6244V34.6693L48.4839 31.6474ZM52.385 38.1579C51.5669 39.0789 50.9423 40.1582 50.5434 41.3515L44.0547 37.6058C44.5533 36.47 45.1825 35.4073 45.9114 34.4209L52.385 38.1579ZM50.5434 47.1485C50.9423 48.3418 51.5669 49.4211 52.385 50.3421L45.9114 54.0791C45.1825 53.0927 44.5533 52.03 44.0547 50.8942L50.5434 47.1485ZM53.7188 53.8307V59.8756C51.7847 59.1887 50.0139 58.1616 48.4839 56.8526L53.7188 53.8307ZM53.7188 44.25C53.7188 41.1999 56.1999 38.7188 59.25 38.7188C62.3001 38.7188 64.7812 41.1999 64.7812 44.25C64.7812 47.3001 62.3001 49.7812 59.25 49.7812C56.1999 49.7812 53.7188 47.3001 53.7188 44.25ZM66.115 38.1579L72.5886 34.4209C73.3175 35.4073 73.9468 36.4699 74.4454 37.6057L67.9566 41.3515C67.5577 40.1582 66.9331 39.0789 66.115 38.1579ZM64.7812 34.6693V28.6244C66.7153 29.3113 68.4861 30.3384 70.0161 31.6474L64.7812 34.6693ZM70.0161 56.8526C68.4861 58.1616 66.7153 59.1887 64.7812 59.8756V53.8307L70.0161 56.8526ZM66.115 50.3421C66.9331 49.4211 67.5577 48.3418 67.9566 47.1485L74.4454 50.8943C73.9468 52.0301 73.3175 53.0927 72.5886 54.0791L66.115 50.3421ZM61.0938 27.765V35.2176C60.4978 35.0961 59.8813 35.0312 59.25 35.0312C58.6187 35.0312 58.0022 35.0961 57.4062 35.2176V27.765C58.0124 27.6975 58.6262 27.6562 59.25 27.6562C59.8738 27.6562 60.4876 27.6975 61.0938 27.765ZM57.4062 60.735V53.2824C58.0022 53.4039 58.6187 53.4688 59.25 53.4688C59.8813 53.4688 60.4978 53.4039 61.0938 53.2824V60.735C60.4876 60.8024 59.8738 60.8438 59.25 60.8438C58.6262 60.8438 58.0124 60.8024 57.4062 60.735Z" fill="#1B5BE6"/>
<path d="M92.4375 71.9062H73.9687C83.8501 66.6261 90.5938 56.2149 90.5938 44.25C90.5938 26.9667 76.5333 12.9062 59.25 12.9062C41.9667 12.9062 27.9062 26.9667 27.9062 44.25C27.9062 56.2149 34.6499 66.6261 44.5313 71.9062H26.0625C23.0124 71.9062 20.5312 74.3874 20.5312 77.4375V99.5625C20.5312 102.613 23.0124 105.094 26.0625 105.094H92.4375C95.4876 105.094 97.9688 102.613 97.9688 99.5625V77.4375C97.9688 74.3874 95.4876 71.9062 92.4375 71.9062ZM43.7366 95.875L38.2053 101.406H32.3572L37.8884 95.875H43.7366ZM48.9509 95.875H54.7991L49.2678 101.406H43.4197L48.9509 95.875ZM60.0134 95.875H65.8616L60.3303 101.406H54.4822L60.0134 95.875ZM71.0759 95.875H76.9241L71.3928 101.406H65.5447L71.0759 95.875ZM82.1384 95.875H87.9866L82.4553 101.406H76.6072L82.1384 95.875ZM24.2188 92.1875V84.8125H94.2812V92.1875H24.2188ZM49.2678 75.5938L54.7991 81.125H48.9509L43.4197 75.5938H49.2678ZM60.3303 75.5938L65.8616 81.125H60.0134L54.4822 75.5938H60.3303ZM82.1384 81.125L76.6072 75.5938H82.4553L87.9866 81.125H82.1384ZM71.3928 75.5938L76.9241 81.125H71.0759L65.5447 75.5938H71.3928ZM43.7366 81.125H37.8884L32.3572 75.5938H38.2053L43.7366 81.125ZM94.2812 77.4375V81.125H93.2009L87.6697 75.5938H92.4375C93.4548 75.5938 94.2812 76.4211 94.2812 77.4375ZM31.5938 44.25C31.5938 29.0003 43.9995 16.5938 59.25 16.5938C74.5005 16.5938 86.9062 29.0003 86.9062 44.25C86.9062 59.4997 74.5005 71.9062 59.25 71.9062C43.9995 71.9062 31.5938 59.4997 31.5938 44.25ZM24.2188 77.4375C24.2188 76.4211 25.0452 75.5938 26.0625 75.5938H27.1428L32.6741 81.125H24.2188V77.4375ZM24.2188 99.5625V95.875H32.6741L27.1428 101.406H26.0625C25.0452 101.406 24.2188 100.579 24.2188 99.5625ZM94.2812 99.5625C94.2812 100.579 93.4548 101.406 92.4375 101.406H87.6697L93.2009 95.875H94.2812V99.5625Z" fill="#1B5BE6"/>
</svg>
