<svg width="119" height="118" viewBox="0 0 119 118" fill="none" xmlns="http://www.w3.org/2000/svg">
<path d="M91.0918 16.5938H87.4043C86.3903 16.5938 85.5605 17.4235 85.5605 18.4375V33.1875C85.5605 34.2015 86.3903 35.0312 87.4043 35.0312C88.4183 35.0312 89.248 34.2015 89.248 33.1875V27.6562H91.0918C94.134 27.6562 96.623 25.1671 96.623 22.125C96.623 19.0829 94.134 16.5938 91.0918 16.5938ZM91.0918 23.9688H89.248V20.2812H91.0918C92.1058 20.2812 92.9355 21.111 92.9355 22.125C92.9355 23.139 92.1058 23.9688 91.0918 23.9688Z" fill="#1B5BE6"/>
<path d="M96.0884 54.0034L91.7924 49.7074C94.5027 49.3571 96.623 47.0709 96.623 44.25C96.623 41.2078 94.134 38.7188 91.0918 38.7188H87.4043C86.3903 38.7188 85.5605 39.5485 85.5605 40.5625V55.3125C85.5605 56.3265 86.3903 57.1562 87.4043 57.1562C88.4183 57.1562 89.248 56.3265 89.248 55.3125V52.3809C89.248 52.3809 93.4702 56.6031 93.4702 56.6215C94.1524 57.2853 95.3693 57.3221 96.0884 56.6215C96.8074 55.9025 96.8074 54.7225 96.0884 54.0034ZM89.248 46.0938V42.4062H91.0918C92.1058 42.4062 92.9355 43.236 92.9355 44.25C92.9355 45.264 92.1058 46.0938 91.0918 46.0938H89.248Z" fill="#1B5BE6"/>
<path d="M87.4043 60.8438C86.3852 60.8438 85.5605 61.6684 85.5605 62.6875V77.4375C85.5605 78.4566 86.3852 79.2812 87.4043 79.2812C92.4872 79.2812 96.623 75.1454 96.623 70.0625C96.623 64.9796 92.4872 60.8438 87.4043 60.8438ZM89.248 75.2787V64.8463C91.3943 65.608 92.9355 67.6588 92.9355 70.0625C92.9355 72.4662 91.3943 74.517 89.248 75.2787Z" fill="#1B5BE6"/>
<path d="M94.7793 82.9688C93.7602 82.9688 92.9355 83.7934 92.9355 84.8125V91.7518L89.0536 83.9879C88.6719 83.2226 87.8094 82.8265 86.9812 83.0174C86.1493 83.2154 85.5605 83.9573 85.5605 84.8125V99.5625C85.5605 100.582 86.3852 101.406 87.4043 101.406C88.4234 101.406 89.248 100.582 89.248 99.5625V92.6232L93.13 100.387C93.9486 102.024 96.623 101.489 96.623 99.5625V84.8125C96.623 83.7934 95.7984 82.9688 94.7793 82.9688Z" fill="#1B5BE6"/>
<path d="M76.3418 68.2188H74.498V29.5C74.498 20.355 67.0493 12.9062 57.9043 12.9062C48.7593 12.9062 41.3105 20.355 41.3105 29.5V68.2188H39.4668C37.0699 68.2188 35.0418 69.7674 34.2674 71.9062H28.4043C27.3903 71.9062 26.5605 72.736 26.5605 73.75V81.125C26.5605 82.139 27.3903 82.9688 28.4043 82.9688H34.2674C35.0417 85.1074 37.0699 86.6562 39.4668 86.6562H41.3105V88.5C41.3105 97.6449 48.7593 105.094 57.9043 105.094C62.3293 105.094 66.4961 103.379 69.649 100.226C72.7834 97.0918 74.498 92.9249 74.498 88.5V86.6562H76.3418C79.384 86.6562 81.873 84.1671 81.873 81.125V73.75C81.873 70.7078 79.384 68.2188 76.3418 68.2188ZM33.9355 79.2812H30.248V75.5938H33.9355V79.2812ZM44.998 29.5C44.998 22.3831 50.7874 16.5938 57.9043 16.5938C65.0212 16.5938 70.8105 22.3831 70.8105 29.5V68.2188H67.123V29.5C67.123 24.4112 62.9931 20.2812 57.9043 20.2812C52.8155 20.2812 48.6855 24.4112 48.6855 29.5V68.2188H44.998V29.5ZM63.4355 29.5V68.2188H52.373V29.5C52.373 26.4578 54.8621 23.9688 57.9043 23.9688C60.9465 23.9688 63.4355 26.4578 63.4355 29.5ZM70.8105 88.5C70.8105 91.9294 69.4646 95.1744 67.0493 97.6266C64.5787 100.06 61.3336 101.406 57.9043 101.406C50.7874 101.406 44.998 95.6169 44.998 88.5V86.6562H48.6855V88.5C48.6855 93.5888 52.8155 97.7188 57.9043 97.7188C62.9931 97.7188 67.123 93.5888 67.123 88.5V86.6562H70.8105V88.5ZM52.373 88.5V86.6562H63.4355V88.5C63.4355 91.5421 60.9465 94.0312 57.9043 94.0312C54.8621 94.0312 52.373 91.5421 52.373 88.5ZM78.1855 81.125C78.1855 82.139 77.3558 82.9688 76.3418 82.9688H39.4668C38.4528 82.9688 37.623 82.139 37.623 81.125V73.75C37.623 72.736 38.4528 71.9062 39.4668 71.9062H76.3418C77.3558 71.9062 78.1855 72.736 78.1855 73.75V81.125Z" fill="#1B5BE6"/>
<path d="M28.4043 57.1562C28.4043 58.1753 29.2298 59 30.248 59C31.2662 59 32.0918 58.1753 32.0918 57.1562V46.8572C32.0918 46.8572 34.4757 49.2411 34.4758 49.2412C35.1896 49.9549 36.3718 49.9522 37.0829 49.2411C37.8031 48.5209 37.8031 47.3541 37.0829 46.6339L31.5516 41.1027C30.8314 40.3824 29.6647 40.3824 28.9445 41.1027L23.4132 46.6339C22.693 47.3541 22.693 48.5209 23.4132 49.2411C24.1334 49.9613 25.3002 49.9613 26.0204 49.2411L28.4043 46.8572V57.1562Z" fill="#1B5BE6"/>
</svg>
