<svg width="119" height="118" viewBox="0 0 119 118" fill="none" xmlns="http://www.w3.org/2000/svg">
<path d="M104 82.9688H100.312V35.0312C103.355 35.0312 105.844 32.5421 105.844 29.5C105.844 26.4579 103.355 23.9688 100.312 23.9688H94.7812V18.4375C94.7812 17.4235 93.9515 16.5938 92.9375 16.5938H85.5625C84.5485 16.5938 83.7188 17.4235 83.7188 18.4375V23.9688H76.3438V22.125C76.3438 19.0828 73.8547 16.5938 70.8125 16.5938H48.6875C45.6453 16.5938 43.1562 19.0828 43.1562 22.125V23.9688H35.7812V18.4375C35.7812 17.4235 34.9515 16.5938 33.9375 16.5938H26.5625C25.5485 16.5938 24.7188 17.4235 24.7188 18.4375V23.9688H19.1875C16.1453 23.9688 13.6562 26.4578 13.6562 29.5C13.6562 32.5422 16.1453 35.0312 19.1875 35.0312V82.9688H15.5C14.486 82.9688 13.6562 83.7985 13.6562 84.8125V92.1875C13.6562 97.2763 17.7862 101.406 22.875 101.406H96.625C101.714 101.406 105.844 97.2763 105.844 92.1875V84.8125C105.844 83.7985 105.014 82.9688 104 82.9688ZM87.4062 20.2812H91.0938V23.9688H87.4062V20.2812ZM46.8438 22.125C46.8438 21.111 47.6735 20.2812 48.6875 20.2812H70.8125C71.8265 20.2812 72.6562 21.111 72.6562 22.125V23.9688H46.8438V22.125ZM28.4062 20.2812H32.0938V23.9688H28.4062V20.2812ZM17.3438 29.5C17.3438 28.486 18.1735 27.6562 19.1875 27.6562H100.312C101.327 27.6562 102.156 28.486 102.156 29.5C102.156 30.514 101.327 31.3438 100.312 31.3438H19.1875C18.1735 31.3438 17.3438 30.514 17.3438 29.5ZM26.5625 82.9688H22.875V35.0312H96.625V82.9688H92.9375C91.9235 82.9688 91.0938 83.7985 91.0938 84.8125V88.5C91.0938 89.514 90.264 90.3438 89.25 90.3438H30.25C29.236 90.3438 28.4062 89.514 28.4062 88.5V84.8125C28.4062 83.7985 27.5765 82.9688 26.5625 82.9688ZM102.156 92.1875C102.156 95.2296 99.6672 97.7188 96.625 97.7188H22.875C19.8328 97.7188 17.3438 95.2296 17.3438 92.1875V86.6562H24.7188V88.5C24.7188 91.5421 27.2078 94.0312 30.25 94.0312H89.25C92.2922 94.0312 94.7812 91.5421 94.7812 88.5V86.6562H102.156V92.1875Z" fill="#1B5BE6"/>
<path d="M76.3438 62.6875H78.1875V64.5312C78.1875 65.5495 79.0122 66.375 80.0312 66.375C81.0503 66.375 81.875 65.5495 81.875 64.5312V62.6875H83.7188C84.7378 62.6875 85.5625 61.862 85.5625 60.8438C85.5625 59.8255 84.7378 59 83.7188 59H81.875V57.1562C81.875 56.138 81.0503 55.3125 80.0312 55.3125C79.0122 55.3125 78.1875 56.138 78.1875 57.1562V59H76.3438C75.3247 59 74.5 59.8255 74.5 60.8438C74.5 61.862 75.3247 62.6875 76.3438 62.6875Z" fill="#1B5BE6"/>
<path d="M80.0312 73.75C87.147 73.75 92.9375 67.9604 92.9375 60.8438C92.9375 53.7271 87.147 47.9375 80.0312 47.9375C72.9155 47.9375 67.125 53.7271 67.125 60.8438C67.125 67.9604 72.9155 73.75 80.0312 73.75ZM80.0312 51.625C85.1142 51.625 89.25 55.7608 89.25 60.8438C89.25 65.9267 85.1142 70.0625 80.0312 70.0625C74.9483 70.0625 70.8125 65.9267 70.8125 60.8438C70.8125 55.7608 74.9483 51.625 80.0312 51.625Z" fill="#1B5BE6"/>
<path d="M35.7812 62.6875H43.1562C44.1745 62.6875 45 61.862 45 60.8438C45 59.8255 44.1745 59 43.1562 59H35.7812C34.763 59 33.9375 59.8255 33.9375 60.8438C33.9375 61.862 34.763 62.6875 35.7812 62.6875Z" fill="#1B5BE6"/>
<path d="M39.4688 73.75C46.5854 73.75 52.375 67.9604 52.375 60.8438C52.375 53.7271 46.5854 47.9375 39.4688 47.9375C32.3521 47.9375 26.5625 53.7271 26.5625 60.8438C26.5625 67.9604 32.3521 73.75 39.4688 73.75ZM39.4688 51.625C44.5517 51.625 48.6875 55.7608 48.6875 60.8438C48.6875 65.9267 44.5517 70.0625 39.4688 70.0625C34.3858 70.0625 30.25 65.9267 30.25 60.8438C30.25 55.7608 34.3858 51.625 39.4688 51.625Z" fill="#1B5BE6"/>
</svg>
