<svg width="119" height="118" viewBox="0 0 119 118" fill="none" xmlns="http://www.w3.org/2000/svg">
<path d="M55.6367 34.9575C40.3871 34.9575 27.9805 47.3641 27.9805 62.6138C27.9805 77.8634 40.3871 90.27 55.6367 90.27C70.8864 90.27 83.293 77.8634 83.293 62.6138C83.293 47.3641 70.8864 34.9575 55.6367 34.9575ZM55.6367 86.5825C42.4199 86.5825 31.668 75.8306 31.668 62.6138C31.668 49.3969 42.4199 38.645 55.6367 38.645C68.8536 38.645 79.6055 49.3969 79.6055 62.6138C79.6055 75.8306 68.8536 86.5825 55.6367 86.5825Z" fill="#1B5BE6"/>
<path d="M59.4637 12.9855C58.9497 12.9459 58.4473 13.1214 58.071 13.4716C57.6947 13.8209 57.4805 14.3107 57.4805 14.8238V20.2901C56.8684 20.2639 56.2645 20.2074 55.6367 20.2074C43.9842 20.2074 33.416 24.9335 25.7434 32.5673C25.7151 32.5924 25.6786 32.6013 25.6515 32.6284C25.6243 32.6555 25.6155 32.692 25.5904 32.7204C17.9565 40.3929 13.2305 50.9612 13.2305 62.6137C13.2305 74.2662 17.9565 84.8344 25.5904 92.507C25.6155 92.5353 25.6243 92.5718 25.6515 92.5989C25.6786 92.6261 25.715 92.6349 25.7434 92.66C33.416 100.294 43.9842 105.02 55.6367 105.02C68.8914 105.02 82.1988 98.2069 90.0053 87.4256C95.2098 80.2377 98.043 71.4878 98.043 62.6137C98.043 61.9858 97.9865 61.382 97.9603 60.7699H103.427C103.94 60.7699 104.429 60.5557 104.779 60.1794C105.128 59.803 105.304 59.298 105.265 58.7866C103.419 34.5208 83.7296 14.831 59.4637 12.9855ZM84.2437 88.6135L80.4076 84.7774C79.6874 84.0572 78.5206 84.0572 77.8004 84.7774C77.0802 85.4976 77.0802 86.6643 77.8004 87.3846L81.6366 91.2207C75.1837 97.0908 66.7636 100.799 57.4805 101.239V95.8012C57.4805 94.783 56.6549 93.9574 55.6367 93.9574C54.6185 93.9574 53.793 94.783 53.793 95.8012V101.239C44.5099 100.799 36.0897 97.0908 29.6369 91.2207L33.473 87.3846C34.1932 86.6643 34.1932 85.4976 33.473 84.7774C32.7528 84.0572 31.5861 84.0572 30.8658 84.7774L27.0297 88.6135C21.1594 82.1605 17.45 73.7374 17.0063 64.4574H22.4492C23.4674 64.4574 24.293 63.6319 24.293 62.6137C24.293 61.5955 23.4674 60.7699 22.4492 60.7699H17.0063C17.45 51.49 21.1594 43.0668 27.0297 36.6138C27.0297 36.6138 30.8519 40.436 30.8658 40.4499C31.5324 41.1164 32.7656 41.1574 33.473 40.45C34.1932 39.7298 34.1932 38.563 33.473 37.8428L29.6369 34.0066C36.5174 27.7475 45.6243 23.8949 55.6367 23.8949C56.2653 23.8949 56.8692 23.9491 57.4805 23.9779V29.6288C57.4805 30.5677 58.1863 31.3573 59.1199 31.4608C73.5602 33.0732 85.197 44.7091 86.7887 59.1287C86.8922 60.0632 87.6818 60.7699 88.6217 60.7699H94.2725C94.3013 61.3812 94.3555 61.9851 94.3555 62.6137C94.3555 72.6261 90.5029 81.733 84.2437 88.6135ZM90.2331 57.0824C87.8681 42.2712 75.9981 30.4012 61.1679 28.0191V16.8575C82.0569 19.3747 98.8757 36.1935 101.393 57.0824H90.2331Z" fill="#1B5BE6"/>
<path d="M83.0146 32.6279C82.2946 33.348 82.2946 34.5153 83.0146 35.2354C83.7346 35.9554 84.902 35.9554 85.622 35.2354C86.3421 34.5153 86.3421 33.348 85.622 32.6279C84.902 31.9079 83.7346 31.9079 83.0146 32.6279Z" fill="#1B5BE6"/>
<path d="M94.3831 50.473C95.3399 50.1247 95.8333 49.0668 95.485 48.1099C95.1367 47.1531 94.0788 46.6597 93.1219 47.0079C92.165 47.3562 91.6717 48.4142 92.0198 49.3711C92.3681 50.328 93.4262 50.8213 94.3831 50.473Z" fill="#1B5BE6"/>
<path d="M70.1408 22.7649C69.1839 22.4166 68.1259 22.91 67.7777 23.8668C67.4294 24.8237 67.9228 25.8817 68.8797 26.2299C69.8365 26.5782 70.8946 26.0849 71.2427 25.128C71.591 24.1711 71.0977 23.1131 70.1408 22.7649Z" fill="#1B5BE6"/>
<path d="M55.6367 57.0825C52.5866 57.0825 50.1055 59.5637 50.1055 62.6138C50.1055 65.6639 52.5866 68.145 55.6367 68.145C58.6868 68.145 61.168 65.6639 61.168 62.6138C61.168 59.5637 58.6868 57.0825 55.6367 57.0825ZM55.6367 64.4575C54.6203 64.4575 53.793 63.6302 53.793 62.6138C53.793 61.5974 54.6203 60.77 55.6367 60.77C56.6531 60.77 57.4805 61.5974 57.4805 62.6138C57.4805 63.6302 56.6531 64.4575 55.6367 64.4575Z" fill="#1B5BE6"/>
<path d="M55.6367 42.3325C52.5866 42.3325 50.1055 44.8137 50.1055 47.8638C50.1055 50.9139 52.5866 53.395 55.6367 53.395C58.6868 53.395 61.168 50.9139 61.168 47.8638C61.168 44.8137 58.6868 42.3325 55.6367 42.3325ZM55.6367 49.7075C54.6203 49.7075 53.793 48.8802 53.793 47.8638C53.793 46.8474 54.6203 46.02 55.6367 46.02C56.6531 46.02 57.4805 46.8474 57.4805 47.8638C57.4805 48.8802 56.6531 49.7075 55.6367 49.7075Z" fill="#1B5BE6"/>
<path d="M40.8867 57.0825C37.8366 57.0825 35.3555 59.5637 35.3555 62.6138C35.3555 65.6639 37.8366 68.145 40.8867 68.145C43.9368 68.145 46.418 65.6639 46.418 62.6138C46.418 59.5637 43.9368 57.0825 40.8867 57.0825ZM40.8867 64.4575C39.8703 64.4575 39.043 63.6302 39.043 62.6138C39.043 61.5974 39.8703 60.77 40.8867 60.77C41.9031 60.77 42.7305 61.5974 42.7305 62.6138C42.7305 63.6302 41.9031 64.4575 40.8867 64.4575Z" fill="#1B5BE6"/>
<path d="M55.6367 71.8325C52.5866 71.8325 50.1055 74.3137 50.1055 77.3638C50.1055 80.4139 52.5866 82.895 55.6367 82.895C58.6868 82.895 61.168 80.4139 61.168 77.3638C61.168 74.3137 58.6868 71.8325 55.6367 71.8325ZM55.6367 79.2075C54.6203 79.2075 53.793 78.3802 53.793 77.3638C53.793 76.3474 54.6203 75.52 55.6367 75.52C56.6531 75.52 57.4805 76.3474 57.4805 77.3638C57.4805 78.3802 56.6531 79.2075 55.6367 79.2075Z" fill="#1B5BE6"/>
<path d="M64.8555 62.6138C64.8555 65.6639 67.3366 68.145 70.3867 68.145C73.4368 68.145 75.918 65.6639 75.918 62.6138C75.918 59.5637 73.4368 57.0825 70.3867 57.0825C67.3366 57.0825 64.8555 59.5637 64.8555 62.6138ZM72.2305 62.6138C72.2305 63.6302 71.4031 64.4575 70.3867 64.4575C69.3703 64.4575 68.543 63.6302 68.543 62.6138C68.543 61.5974 69.3703 60.77 70.3867 60.77C71.4031 60.77 72.2305 61.5974 72.2305 62.6138Z" fill="#1B5BE6"/>
</svg>
