<svg width="119" height="118" viewBox="0 0 119 118" fill="none" xmlns="http://www.w3.org/2000/svg">
<path d="M76.3443 70.0283H43.1568C42.5176 70.0283 41.9252 70.3596 41.5885 70.9025C41.2518 71.4462 41.2212 72.1251 41.5075 72.6967L45.195 80.0717C45.5083 80.6965 46.1457 81.0908 46.8443 81.0908H72.6568C73.3554 81.0908 73.9928 80.6965 74.3061 80.0717L77.9936 72.6967C78.2798 72.125 78.2492 71.4462 77.9125 70.9025C77.5759 70.3596 76.9835 70.0283 76.3443 70.0283ZM71.5171 77.4033H47.984L46.1403 73.7158H73.3608L71.5171 77.4033Z" fill="#1B5BE6"/>
<path d="M104 55.3494H98.4688C97.8972 55.3494 97.3441 55.6259 96.9938 56.0868L93.5828 60.6409L88.1438 44.379C87.4062 42.1113 85.2859 40.5994 82.9075 40.5994H36.5925C34.2141 40.5994 32.0938 42.1113 31.3562 44.379L25.9172 60.6409L22.5062 56.0868C22.1559 55.6259 21.6028 55.3494 21.0312 55.3494H15.5C14.486 55.3494 13.6562 56.1791 13.6562 57.1931V64.5681C13.6562 65.5822 14.486 66.4119 15.5 66.4119H19.9066L18.1919 67.4444C16.7906 68.2741 15.8872 69.7121 15.6106 71.2794C15.5554 71.4637 15.5 71.6665 15.5 71.8693C15.5 71.9247 15.5185 71.9616 15.5185 71.9984C15.5185 72.0537 15.5 72.1275 15.5 72.1828V82.9318C15.5 85.9925 17.989 88.463 21.0312 88.463H24.7188V90.3068C24.7188 95.3956 28.8487 99.5255 33.9375 99.5255C39.0263 99.5255 43.1562 95.3956 43.1562 90.3068V88.463H76.3438V90.3068C76.3438 95.3956 80.4737 99.5255 85.5625 99.5255C90.6513 99.5255 94.7812 95.3956 94.7812 90.3068V88.463H98.4688C101.511 88.463 104 85.9925 104 82.9318V70.7446C104 69.0115 103.207 67.4444 101.898 66.4119H104C105.014 66.4119 105.844 65.5822 105.844 64.5681V57.1931C105.844 56.1791 105.014 55.3494 104 55.3494ZM34.8409 45.5406C35.0991 44.7846 35.7997 44.2869 36.5925 44.2869H82.9075C83.7003 44.2869 84.4009 44.7846 84.6591 45.5406L90.3747 62.7244H87.2403C86.3553 57.5065 81.8197 53.5056 76.3438 53.5056C70.8679 53.5056 66.3322 57.5065 65.4473 62.7244H29.1253L34.8409 45.5406ZM83.4606 62.7244H69.2269C70.0566 59.5531 72.9144 57.1931 76.3438 57.1931C79.7731 57.1931 82.6309 59.5531 83.4606 62.7244ZM17.3438 62.7244V59.0369H20.1094L22.875 62.7244H17.3438ZM39.4688 90.3068C39.4688 93.3675 36.9797 95.838 33.9375 95.838C30.8953 95.838 28.4062 93.3675 28.4062 90.3068V88.463H39.4688V90.3068ZM91.0938 90.3068C91.0938 93.3675 88.6047 95.838 85.5625 95.838C82.5203 95.838 80.0312 93.3675 80.0312 90.3068V88.463H91.0938V90.3068ZM100.312 82.9318C100.312 83.9459 99.4828 84.7755 98.4688 84.7755H21.0312C20.0172 84.7755 19.1875 83.9459 19.1875 82.9318V73.713H22.875V79.2443C22.875 80.2584 23.7047 81.088 24.7188 81.088H37.625C38.2703 81.088 38.8603 80.7562 39.1922 80.2215C39.5241 79.6684 39.5609 78.9863 39.266 78.4147L38.639 77.1609C36.445 72.7544 32.02 70.0255 27.0972 70.0255H21.0497L27.0788 66.4119H92.5872L99.1509 69.0484C99.6119 69.2327 99.9622 69.5831 100.147 70.0255H92.4029C87.48 70.0255 83.055 72.7544 80.861 77.1609L80.234 78.4147C79.9391 78.9863 79.9759 79.6684 80.3079 80.2215C80.6397 80.7562 81.2297 81.088 81.875 81.088H94.7813C95.7953 81.088 96.625 80.2584 96.625 79.2443V73.713H100.313L100.312 82.9318ZM26.5625 77.4005V73.713H27.0972C30.0472 73.713 32.7575 75.0959 34.4722 77.4005H26.5625ZM92.9375 73.713V77.4005H85.0278C86.7425 75.0959 89.4528 73.713 92.4028 73.713H92.9375ZM102.156 62.7244H96.625L99.3906 59.0369H102.156V62.7244Z" fill="#1B5BE6"/>
<path d="M16.7136 42.3324C18.7788 43.0832 20.3921 44.6974 21.1429 46.7608C21.4075 47.4891 22.0989 47.9744 22.875 47.9744C23.651 47.9744 24.3424 47.4891 24.6071 46.7608C25.3579 44.6974 26.9712 43.0832 29.0364 42.3324C29.7656 42.0668 30.25 41.3745 30.25 40.5994C30.25 39.8242 29.7656 39.1319 29.0364 38.8664C26.9712 38.1155 25.3579 36.5014 24.6071 34.4379C24.3424 33.7096 23.651 33.2244 22.875 33.2244C22.099 33.2244 21.4076 33.7096 21.1429 34.4379C20.3921 36.5013 18.7788 38.1155 16.7136 38.8664C15.9844 39.1319 15.5 39.8242 15.5 40.5994C15.5 41.3745 15.9844 42.0668 16.7136 42.3324ZM22.875 38.8033C23.4026 39.4686 24.0057 40.0718 24.6719 40.5994C24.0057 41.1269 23.4026 41.7301 22.875 42.3954C22.3474 41.7301 21.7443 41.1269 21.0781 40.5994C21.7443 40.0718 22.3474 39.4686 22.875 38.8033Z" fill="#1B5BE6"/>
<path d="M27.7761 27.5824C29.8413 28.3332 31.4546 29.9474 32.2054 32.0108C32.47 32.7391 33.1614 33.2244 33.9375 33.2244C34.7135 33.2244 35.4049 32.7391 35.6696 32.0108C36.4204 29.9474 38.0337 28.3332 40.0989 27.5824C40.8281 27.3168 41.3125 26.6245 41.3125 25.8494C41.3125 25.0742 40.8281 24.3819 40.0989 24.1164C38.0337 23.3655 36.4204 21.7514 35.6696 19.6879C35.4049 18.9596 34.7135 18.4744 33.9375 18.4744C33.1615 18.4744 32.4701 18.9596 32.2054 19.6879C31.4546 21.7513 29.8413 23.3655 27.7761 24.1164C27.0469 24.3819 26.5625 25.0742 26.5625 25.8494C26.5625 26.6245 27.0469 27.3168 27.7761 27.5824ZM33.9375 24.0533C34.4651 24.7186 35.0682 25.3218 35.7344 25.8494C35.0682 26.3769 34.4651 26.9801 33.9375 27.6454C33.4099 26.9801 32.8068 26.3769 32.1406 25.8494C32.8068 25.3218 33.4099 24.7186 33.9375 24.0533Z" fill="#1B5BE6"/>
<path d="M64.6511 27.5824C66.7163 28.3332 68.3296 29.9474 69.0804 32.0108C69.345 32.7391 70.0364 33.2244 70.8125 33.2244C71.5885 33.2244 72.2799 32.7391 72.5446 32.0108C73.2954 29.9474 74.9087 28.3332 76.9739 27.5824C77.7031 27.3168 78.1875 26.6245 78.1875 25.8494C78.1875 25.0742 77.7031 24.3819 76.9739 24.1164C74.9087 23.3655 73.2954 21.7514 72.5446 19.6879C72.2799 18.9596 71.5885 18.4744 70.8125 18.4744C70.0365 18.4744 69.3451 18.9596 69.0804 19.6879C68.3296 21.7513 66.7163 23.3655 64.6511 24.1164C63.9219 24.3819 63.4375 25.0742 63.4375 25.8494C63.4375 26.6245 63.9219 27.3168 64.6511 27.5824ZM70.8125 24.0533C71.3401 24.7186 71.9432 25.3218 72.6094 25.8494C71.9432 26.3769 71.3401 26.9801 70.8125 27.6454C70.2849 26.9801 69.6818 26.3769 69.0156 25.8494C69.6818 25.3218 70.2849 24.7186 70.8125 24.0533Z" fill="#1B5BE6"/>
<path d="M86.7761 38.6449C88.8413 39.3957 90.4546 41.0099 91.2054 43.0733C91.47 43.8016 92.1614 44.2869 92.9375 44.2869C93.7135 44.2869 94.4049 43.8016 94.6696 43.0733C95.4204 41.0099 97.0337 39.3957 99.0989 38.6449C99.8281 38.3793 100.312 37.687 100.312 36.9119C100.312 36.1367 99.8281 35.4444 99.0989 35.1789C97.0337 34.428 95.4204 32.8139 94.6696 30.7504C94.4049 30.0221 93.7135 29.5369 92.9375 29.5369C92.1615 29.5369 91.4701 30.0221 91.2054 30.7504C90.4546 32.8138 88.8413 34.428 86.7761 35.1789C86.0469 35.4444 85.5625 36.1367 85.5625 36.9119C85.5625 37.687 86.0469 38.3793 86.7761 38.6449ZM92.9375 35.1158C93.4651 35.7811 94.0682 36.3843 94.7344 36.9119C94.0682 37.4394 93.4651 38.0426 92.9375 38.7079C92.4099 38.0426 91.8068 37.4394 91.1406 36.9119C91.8068 36.3843 92.4099 35.7811 92.9375 35.1158Z" fill="#1B5BE6"/>
</svg>
