<svg width="119" height="118" viewBox="0 0 119 118" fill="none" xmlns="http://www.w3.org/2000/svg">
<path d="M100.062 12.9062H18.9375C15.8874 12.9062 13.4062 15.3874 13.4062 18.4375V99.5625C13.4062 102.613 15.8874 105.094 18.9375 105.094H100.062C103.113 105.094 105.594 102.613 105.594 99.5625V18.4375C105.594 15.3874 103.113 12.9062 100.062 12.9062ZM101.906 99.5625C101.906 100.58 101.08 101.406 100.062 101.406H18.9375C17.9211 101.406 17.0938 100.58 17.0938 99.5625V18.4375C17.0938 17.4211 17.9211 16.5938 18.9375 16.5938H100.062C101.08 16.5938 101.906 17.4211 101.906 18.4375V99.5625Z" fill="#1B5BE6"/>
<path d="M59.5 20.2812C38.1501 20.2812 20.7812 37.6501 20.7812 59C20.7812 80.3499 38.1501 97.7188 59.5 97.7188C80.8499 97.7188 98.2188 80.349 98.2188 59C98.2188 37.651 80.849 20.2812 59.5 20.2812ZM59.5 94.0312C40.1838 94.0312 24.4688 78.3162 24.4688 59C24.4688 39.6838 40.1838 23.9688 59.5 23.9688C78.8162 23.9688 94.5312 39.6838 94.5312 59C94.5312 78.3162 78.8162 94.0312 59.5 94.0312Z" fill="#1B5BE6"/>
<path d="M59.5 62.6875C61.5366 62.6875 63.1875 61.0366 63.1875 59C63.1875 56.9634 61.5366 55.3125 59.5 55.3125C57.4634 55.3125 55.8125 56.9634 55.8125 59C55.8125 61.0366 57.4634 62.6875 59.5 62.6875Z" fill="#1B5BE6"/>
<path d="M79.684 48.7162L69.0109 49.4882L69.7811 38.8394C70.0259 35.9756 69.0518 33.1173 67.1055 30.999C65.1555 28.8743 62.3845 27.6562 59.5 27.6562C56.6155 27.6562 53.8427 28.8752 51.8927 30.9999C49.9472 33.1191 48.9731 35.9765 49.2162 38.8151L49.9882 49.4882L39.3394 48.7181C36.472 48.4777 33.6182 49.4473 31.4999 51.3927C29.3752 53.3427 28.1562 56.1155 28.1562 59C28.1562 61.8845 29.3743 64.6555 31.499 66.6055C33.4039 68.3556 35.9058 69.3207 38.4553 69.3207C38.7416 69.3207 39.0288 69.3081 39.3151 69.2829L49.9882 68.5109L49.2181 79.1588C48.9732 82.0235 49.9473 84.881 51.8927 87.0002C53.8427 89.1248 56.6155 90.3438 59.5 90.3438C62.3845 90.3438 65.1555 89.1248 67.1055 87.002C69.0519 84.8828 70.026 82.0235 69.7829 79.1841C69.7829 79.1841 69.0109 68.5108 69.0109 68.5108C72.8225 68.7865 76.711 69.3189 80.5321 69.3189C83.0961 69.3189 85.597 68.3538 87.502 66.6055C89.6248 64.6555 90.8438 61.8845 90.8438 59C90.8438 56.1156 89.6248 53.3427 87.5002 51.3928C85.381 49.4482 82.5253 48.4759 79.684 48.7162ZM52.125 59C52.125 54.9335 55.4335 51.625 59.5 51.625C63.5674 51.625 66.875 54.9335 66.875 59C66.875 63.0674 63.5674 66.375 59.5 66.375C55.4335 66.375 52.125 63.0674 52.125 59ZM54.6097 33.4936C55.8818 32.1072 57.6185 31.3438 59.5 31.3438C61.3815 31.3438 63.1173 32.1072 64.3903 33.4927C65.6578 34.8728 66.2664 36.6598 66.1062 38.5486L65.3067 49.6017C63.6165 48.5535 61.6312 47.9375 59.5 47.9375C57.3692 47.9375 55.3843 48.5533 53.6942 49.6012L52.8929 38.5243C52.7327 36.6607 53.3422 34.8737 54.6097 33.4936ZM39.0243 65.608C37.1679 65.7682 35.3728 65.1578 33.9927 63.8903C32.6072 62.6173 31.8438 60.8815 31.8438 59C31.8438 57.1185 32.6072 55.3818 33.9936 54.1097C35.3737 52.8431 37.1698 52.2336 39.0486 52.3947L50.1012 53.1942C49.0533 54.8843 48.4375 56.8692 48.4375 59C48.4375 61.1312 49.0536 63.1165 50.1018 64.8067L39.0243 65.608ZM64.3903 84.5082C63.1173 85.8928 61.3815 86.6562 59.5 86.6562C57.6185 86.6562 55.8818 85.8928 54.6097 84.5064C53.3422 83.1272 52.7327 81.3393 52.8947 79.4505L53.6942 68.3988C55.3843 69.4467 57.3692 70.0625 59.5 70.0625C61.6312 70.0625 63.6165 69.4465 65.3067 68.3982L66.108 79.4739C66.2664 81.3392 65.6578 83.1272 64.3903 84.5082ZM87.1562 59C87.1562 60.8816 86.3928 62.6173 85.0082 63.8903C83.6272 65.156 81.8519 65.761 79.9505 65.6062L68.8982 64.8067C69.9465 63.1165 70.5625 61.1312 70.5625 59C70.5625 56.8692 69.9467 54.8843 68.8988 53.1942L79.9757 52.3929C81.8411 52.2282 83.6272 52.8431 85.0064 54.1097C86.3928 55.3818 87.1562 57.1185 87.1562 59Z" fill="#1B5BE6"/>
<path d="M92.6875 20.2812C89.6374 20.2812 87.1562 22.7624 87.1562 25.8125C87.1562 28.8626 89.6374 31.3438 92.6875 31.3438C95.7376 31.3438 98.2188 28.8626 98.2188 25.8125C98.2188 22.7624 95.7376 20.2812 92.6875 20.2812ZM92.6875 27.6562C91.6702 27.6562 90.8438 26.8289 90.8438 25.8125C90.8438 24.7961 91.6702 23.9688 92.6875 23.9688C93.7048 23.9688 94.5312 24.7961 94.5312 25.8125C94.5312 26.8289 93.7048 27.6562 92.6875 27.6562Z" fill="#1B5BE6"/>
<path d="M26.3125 31.3438C29.3626 31.3438 31.8438 28.8626 31.8438 25.8125C31.8438 22.7624 29.3626 20.2812 26.3125 20.2812C23.2624 20.2812 20.7812 22.7624 20.7812 25.8125C20.7812 28.8626 23.2624 31.3438 26.3125 31.3438ZM26.3125 23.9688C27.3289 23.9688 28.1562 24.7961 28.1562 25.8125C28.1562 26.8289 27.3289 27.6562 26.3125 27.6562C25.2961 27.6562 24.4688 26.8289 24.4688 25.8125C24.4688 24.7961 25.2961 23.9688 26.3125 23.9688Z" fill="#1B5BE6"/>
<path d="M92.6875 86.6562C89.6374 86.6562 87.1562 89.1374 87.1562 92.1875C87.1562 95.2376 89.6374 97.7188 92.6875 97.7188C95.7376 97.7188 98.2188 95.2376 98.2188 92.1875C98.2188 89.1374 95.7376 86.6562 92.6875 86.6562ZM92.6875 94.0312C91.6702 94.0312 90.8438 93.2048 90.8438 92.1875C90.8438 91.1702 91.6702 90.3438 92.6875 90.3438C93.7048 90.3438 94.5312 91.1702 94.5312 92.1875C94.5312 93.2048 93.7048 94.0312 92.6875 94.0312Z" fill="#1B5BE6"/>
<path d="M26.3125 86.6562C23.2624 86.6562 20.7812 89.1374 20.7812 92.1875C20.7812 95.2376 23.2624 97.7188 26.3125 97.7188C29.3626 97.7188 31.8438 95.2376 31.8438 92.1875C31.8438 89.1374 29.3626 86.6562 26.3125 86.6562ZM26.3125 94.0312C25.2961 94.0312 24.4688 93.2048 24.4688 92.1875C24.4688 91.1702 25.2961 90.3438 26.3125 90.3438C27.3289 90.3438 28.1562 91.1702 28.1562 92.1875C28.1562 93.2048 27.3289 94.0312 26.3125 94.0312Z" fill="#1B5BE6"/>
<path d="M80.7019 44.2878C81.2746 45.1127 82.4479 45.3216 83.2676 44.7506C84.1031 44.1699 84.3119 43.0212 83.7304 42.1848C81.7084 39.2716 79.2056 36.776 76.2924 34.7675C75.4533 34.1877 74.3064 34.3993 73.7284 35.2393C73.1504 36.0774 73.3611 37.2252 74.2001 37.8032C76.746 39.5587 78.9336 41.7399 80.7019 44.2878Z" fill="#1B5BE6"/>
<path d="M36.783 45.0936C37.3696 45.0917 37.9486 44.8138 38.3026 44.3003C40.0572 41.7552 42.2386 39.5676 44.7863 37.8004C45.6236 37.2197 45.8307 36.0709 45.2509 35.2346C44.6693 34.3965 43.5215 34.1876 42.6851 34.7701C39.7702 36.792 37.2747 39.2946 35.2672 42.2077C34.442 43.4051 35.333 45.0984 36.783 45.0936Z" fill="#1B5BE6"/>
<path d="M38.3005 73.7123C37.7189 72.8769 36.5701 72.6662 35.7338 73.2496C34.8974 73.8293 34.6904 74.9781 35.2702 75.8153C37.293 78.7303 39.7956 81.2258 42.707 83.2333C43.4994 83.7797 44.6895 83.6071 45.2722 82.7618C45.8501 81.9245 45.6395 80.7758 44.8013 80.1978C42.2563 78.4423 40.0686 76.2601 38.3005 73.7123Z" fill="#1B5BE6"/>
<path d="M80.6983 73.6996C78.9428 76.2438 76.7605 78.4315 74.2127 80.2014C73.3755 80.7811 73.1684 81.9299 73.75 82.7672C74.3234 83.5942 75.4934 83.8028 76.3158 83.2299C79.2291 81.2079 81.7246 78.7051 83.734 75.7919C84.312 74.9546 84.1013 73.8059 83.2622 73.2279C82.425 72.6499 81.2762 72.8624 80.6983 73.6996Z" fill="#1B5BE6"/>
</svg>
