<svg width="119" height="118" viewBox="0 0 119 118" fill="none" xmlns="http://www.w3.org/2000/svg">
<path d="M99.8125 35.0487H62.9375C35.4883 35.0487 13.1562 57.3808 13.1562 84.83V99.58C13.1562 102.63 15.6374 105.111 18.6875 105.111H55.5625C83.0117 105.111 105.344 82.7792 105.344 55.33V40.58C105.344 37.5298 102.863 35.0487 99.8125 35.0487ZM101.656 55.33C101.656 80.7463 80.9789 101.424 55.5625 101.424H18.6875C17.6702 101.424 16.8438 100.597 16.8438 99.58V84.83C16.8438 59.4136 37.5211 38.7362 62.9375 38.7362H99.8125C100.83 38.7362 101.656 39.5636 101.656 40.58V55.33Z" fill="#1B5BE6"/>
<path d="M96.125 42.4237H62.9375C39.5539 42.4237 20.5312 61.4464 20.5312 84.83V95.8925C20.5312 96.9116 21.3559 97.7362 22.375 97.7362H55.5625C78.9461 97.7362 97.9688 78.7135 97.9688 55.33V44.2675C97.9688 43.2492 97.1441 42.4237 96.125 42.4237ZM94.2812 55.33C94.2812 76.6789 76.9115 94.0487 55.5625 94.0487H24.2188V84.83C24.2188 63.481 41.5885 46.1112 62.9375 46.1112H94.2812V55.33Z" fill="#1B5BE6"/>
<path d="M53.7188 66.3925C53.7188 75.5428 61.1622 82.9862 70.3125 82.9862C79.4628 82.9862 86.9062 75.5428 86.9062 66.3925C86.9062 57.243 79.4628 49.7987 70.3125 49.7987C61.1622 49.7987 53.7188 57.243 53.7188 66.3925ZM70.3125 53.4862C77.4282 53.4862 83.2188 59.2758 83.2188 66.3925C83.2188 73.5082 77.4282 79.2987 70.3125 79.2987C63.1968 79.2987 57.4062 73.5082 57.4062 66.3925C57.4062 59.2758 63.1968 53.4862 70.3125 53.4862Z" fill="#1B5BE6"/>
<path d="M70.3125 75.6112C75.3954 75.6112 79.5312 71.4754 79.5312 66.3925C79.5312 61.3095 75.3954 57.1737 70.3125 57.1737C65.2296 57.1737 61.0938 61.3095 61.0938 66.3925C61.0938 71.4754 65.2296 75.6112 70.3125 75.6112ZM70.3125 60.8612C73.3626 60.8612 75.8438 63.3423 75.8438 66.3925C75.8438 69.4426 73.3626 71.9237 70.3125 71.9237C67.2624 71.9237 64.7812 69.4426 64.7812 66.3925C64.7812 63.3423 67.2624 60.8612 70.3125 60.8612Z" fill="#1B5BE6"/>
<path d="M39.8906 66.3925C33.2827 66.3925 27.9062 71.7689 27.9062 78.3768C27.9062 84.9848 33.2827 90.3612 39.8906 90.3612C46.4986 90.3612 51.875 84.9848 51.875 78.3768C51.875 71.7689 46.4986 66.3925 39.8906 66.3925ZM39.8906 86.6737C35.3155 86.6737 31.5938 82.952 31.5938 78.3768C31.5938 73.8017 35.3155 70.08 39.8906 70.08C44.4658 70.08 48.1875 73.8017 48.1875 78.3768C48.1875 82.952 44.4658 86.6737 39.8906 86.6737Z" fill="#1B5BE6"/>
<path d="M39.8906 82.9862C42.4363 82.9862 44.5 80.9225 44.5 78.3768C44.5 75.8311 42.4363 73.7675 39.8906 73.7675C37.3449 73.7675 35.2812 75.8311 35.2812 78.3768C35.2812 80.9225 37.3449 82.9862 39.8906 82.9862Z" fill="#1B5BE6"/>
<path d="M59.25 25.8795C60.2691 25.8795 61.0938 25.0539 61.0938 24.0357V16.6112C61.0938 15.593 60.2691 14.7675 59.25 14.7675C58.2309 14.7675 57.4062 15.593 57.4062 16.6112V24.0357C57.4062 25.0539 58.2309 25.8795 59.25 25.8795Z" fill="#1B5BE6"/>
<path d="M46.9708 25.8956C47.5622 28.1025 51.168 27.3209 50.5323 24.9413L47.6694 14.2551C47.4083 13.272 46.3964 12.6895 45.4115 12.9515C44.4285 13.2144 43.8451 14.2254 44.108 15.2094C44.108 15.2094 46.9607 25.8579 46.9708 25.8956Z" fill="#1B5BE6"/>
<path d="M69.2969 27.1063C70.1855 27.3527 71.2245 27.0365 71.5287 25.8956L74.3916 15.2094C74.6545 14.2254 74.0711 13.2144 73.088 12.9515C72.1067 12.6913 71.093 13.272 70.8301 14.2551L67.9673 24.9413C67.67 26.0508 68.4083 26.8598 69.2969 27.1063Z" fill="#1B5BE6"/>
<path d="M78.9676 31.1145C79.795 31.5923 80.9629 31.3446 81.4866 30.4393L87.0178 20.8586C87.5274 19.9764 87.2249 18.8492 86.3426 18.3397C85.4604 17.8301 84.3332 18.1326 83.8237 19.0149L78.2924 28.5955C77.7829 29.4777 78.0853 30.6047 78.9676 31.1145Z" fill="#1B5BE6"/>
<path d="M37.0131 30.4393C38.1878 32.4737 41.4095 30.677 40.2073 28.5955L34.676 19.0149C34.1647 18.1326 33.034 17.8301 32.1571 18.3397C31.2748 18.8492 30.9723 19.9764 31.4819 20.8586C31.4819 20.8586 36.9907 30.4004 37.0131 30.4393Z" fill="#1B5BE6"/>
</svg>
