<svg width="20" height="15" viewBox="0 0 20 15" fill="none" xmlns="http://www.w3.org/2000/svg">
<path d="M17.1637 3.7472C17.1759 3.91126 17.1759 4.07439 17.1759 4.23751C17.1759 9.2297 13.3763 14.9822 6.43219 14.9822C4.29281 14.9822 2.30531 14.3625 0.632812 13.2863C0.936563 13.3209 1.22906 13.3331 1.545 13.3331C3.24468 13.3372 4.89623 12.7689 6.23344 11.7197C5.4454 11.7054 4.68148 11.4454 4.04835 10.976C3.41522 10.5066 2.94449 9.85116 2.70187 9.10126C2.93531 9.13595 3.16969 9.15939 3.41531 9.15939C3.75375 9.15939 4.09406 9.11251 4.41 9.03095C3.55477 8.85827 2.78576 8.39471 2.23371 7.71909C1.68165 7.04347 1.38065 6.19749 1.38188 5.32501V5.27814C1.88531 5.55845 2.46937 5.73376 3.08812 5.7572C2.56977 5.41275 2.14474 4.94534 1.85094 4.39669C1.55715 3.84803 1.40373 3.23519 1.40437 2.61282C1.40437 1.91157 1.59094 1.26845 1.91813 0.707823C2.867 1.87503 4.05047 2.82991 5.39188 3.51063C6.73328 4.19134 8.20271 4.58271 9.705 4.65939C9.64688 4.37814 9.61125 4.08657 9.61125 3.79407C9.611 3.2981 9.70851 2.80694 9.8982 2.34867C10.0879 1.89041 10.366 1.47402 10.7167 1.12331C11.0674 0.772605 11.4838 0.494458 11.9421 0.304771C12.4004 0.115084 12.8915 0.0175763 13.3875 0.0178227C14.475 0.0178227 15.4566 0.473448 16.1466 1.21032C16.992 1.04684 17.8027 0.738218 18.5428 0.298135C18.261 1.17078 17.6707 1.91073 16.8825 2.37939C17.6323 2.29387 18.3651 2.09668 19.0566 1.79439C18.5401 2.54729 17.9002 3.20752 17.1637 3.7472Z" fill="white"/>
</svg>
